# xmcd
#
# Track frame offsets:
#	150
#	12212
#	29525
#	42190
#	57387
#	72775
#	85350
#	100037
#	112875
#	123725
#	138520
#	154400
#	166775
#	181212
#
# Disc length: 2605 seconds
#
# Revision: 1
# Processed by: cddbd v1.4PL0 Copyright (c) Steve Scherf et al.
# Submitted via: audiograbber 1.82.00
#
DISCID=b70a2b0e
DTITLE=Jean Stafford - That Says It All
DYEAR=1900
DGENRE=
TTITLE0=Love Is Just A Two Step Away
TTITLE1=Sunshine Rain
TTITLE2=That Says It All
TTITLE3=First, Best and Always
TTITLE4=Seeing You With Her
TTITLE5=Can't You Just Stay Gone
TTITLE6=The Torch
TTITLE7=Could It Be You
TTITLE8=Blue Mountain Melody
TTITLE9=Accidentally On Purpose
TTITLE10=Woman's Work
TTITLE11=Wishing Won't Do It
TTITLE12=Be There
TTITLE13=Cowboy Days
EXTD=
EXTT0=
EXTT1=
EXTT2=
EXTT3=
EXTT4=
EXTT5=
EXTT6=
EXTT7=
EXTT8=
EXTT9=
EXTT10=
EXTT11=
EXTT12=
EXTT13=
PLAYORDER=
